<svg xmlns="http://www.w3.org/2000/svg" viewBox="0 0 512 512">
<rect width="512" height="512" rx="90" fill="#080D18"/>
<circle cx="256" cy="256" r="230" fill="#0d1829" stroke="#1e3a4a" stroke-width="3"/>
<circle cx="256" cy="256" r="212" fill="none" stroke="#00E5FF" stroke-width="1" opacity="0.12"/>
<g transform="rotate(0 256 256)"><line x1="256" y1="26" x2="256" y2="60" stroke="#FF6B35" stroke-width="4"/><text x="256" y="78" text-anchor="middle" font-family="monospace" font-size="22" font-weight="bold" fill="#FF6B35">0</text></g>
<g transform="rotate(5 256 256)"><line x1="256" y1="26" x2="256" y2="34" stroke="rgba(255,255,255,0.15)" stroke-width="1"/></g>
<g transform="rotate(10 256 256)"><line x1="256" y1="26" x2="256" y2="40" stroke="rgba(255,255,255,0.3)" stroke-width="1.5"/></g>
<g transform="rotate(15 256 256)"><line x1="256" y1="26" x2="256" y2="48" stroke="rgba(255,255,255,0.6)" stroke-width="2.5"/><text x="256" y="66" text-anchor="middle" font-family="monospace" font-size="13" font-weight="normal" fill="rgba(255,255,255,0.5)">15</text></g>
<g transform="rotate(20 256 256)"><line x1="256" y1="26" x2="256" y2="40" stroke="rgba(255,255,255,0.3)" stroke-width="1.5"/></g>
<g transform="rotate(25 256 256)"><line x1="256" y1="26" x2="256" y2="34" stroke="rgba(255,255,255,0.15)" stroke-width="1"/></g>
<g transform="rotate(30 256 256)"><line x1="256" y1="26" x2="256" y2="48" stroke="rgba(255,255,255,0.6)" stroke-width="2.5"/><text x="256" y="66" text-anchor="middle" font-family="monospace" font-size="13" font-weight="normal" fill="rgba(255,255,255,0.5)">30</text></g>
<g transform="rotate(35 256 256)"><line x1="256" y1="26" x2="256" y2="34" stroke="rgba(255,255,255,0.15)" stroke-width="1"/></g>
<g transform="rotate(40 256 256)"><line x1="256" y1="26" x2="256" y2="40" stroke="rgba(255,255,255,0.3)" stroke-width="1.5"/></g>
<g transform="rotate(45 256 256)"><line x1="256" y1="26" x2="256" y2="48" stroke="rgba(255,255,255,0.6)" stroke-width="2.5"/><text x="256" y="66" text-anchor="middle" font-family="monospace" font-size="13" font-weight="normal" fill="rgba(255,255,255,0.5)">45</text></g>
<g transform="rotate(50 256 256)"><line x1="256" y1="26" x2="256" y2="40" stroke="rgba(255,255,255,0.3)" stroke-width="1.5"/></g>
<g transform="rotate(55 256 256)"><line x1="256" y1="26" x2="256" y2="34" stroke="rgba(255,255,255,0.15)" stroke-width="1"/></g>
<g transform="rotate(60 256 256)"><line x1="256" y1="26" x2="256" y2="48" stroke="rgba(255,255,255,0.6)" stroke-width="2.5"/><text x="256" y="66" text-anchor="middle" font-family="monospace" font-size="13" font-weight="normal" fill="rgba(255,255,255,0.5)">60</text></g>
<g transform="rotate(65 256 256)"><line x1="256" y1="26" x2="256" y2="34" stroke="rgba(255,255,255,0.15)" stroke-width="1"/></g>
<g transform="rotate(70 256 256)"><line x1="256" y1="26" x2="256" y2="40" stroke="rgba(255,255,255,0.3)" stroke-width="1.5"/></g>
<g transform="rotate(75 256 256)"><line x1="256" y1="26" x2="256" y2="48" stroke="rgba(255,255,255,0.6)" stroke-width="2.5"/><text x="256" y="66" text-anchor="middle" font-family="monospace" font-size="13" font-weight="normal" fill="rgba(255,255,255,0.5)">75</text></g>
<g transform="rotate(80 256 256)"><line x1="256" y1="26" x2="256" y2="40" stroke="rgba(255,255,255,0.3)" stroke-width="1.5"/></g>
<g transform="rotate(85 256 256)"><line x1="256" y1="26" x2="256" y2="34" stroke="rgba(255,255,255,0.15)" stroke-width="1"/></g>
<g transform="rotate(90 256 256)"><line x1="256" y1="26" x2="256" y2="60" stroke="#00E5FF" stroke-width="4"/><text x="256" y="78" text-anchor="middle" font-family="monospace" font-size="22" font-weight="bold" fill="#00E5FF">90</text></g>
<g transform="rotate(95 256 256)"><line x1="256" y1="26" x2="256" y2="34" stroke="rgba(255,255,255,0.15)" stroke-width="1"/></g>
<g transform="rotate(100 256 256)"><line x1="256" y1="26" x2="256" y2="40" stroke="rgba(255,255,255,0.3)" stroke-width="1.5"/></g>
<g transform="rotate(105 256 256)"><line x1="256" y1="26" x2="256" y2="48" stroke="rgba(255,255,255,0.6)" stroke-width="2.5"/><text x="256" y="66" text-anchor="middle" font-family="monospace" font-size="13" font-weight="normal" fill="rgba(255,255,255,0.5)">105</text></g>
<g transform="rotate(110 256 256)"><line x1="256" y1="26" x2="256" y2="40" stroke="rgba(255,255,255,0.3)" stroke-width="1.5"/></g>
<g transform="rotate(115 256 256)"><line x1="256" y1="26" x2="256" y2="34" stroke="rgba(255,255,255,0.15)" stroke-width="1"/></g>
<g transform="rotate(120 256 256)"><line x1="256" y1="26" x2="256" y2="48" stroke="rgba(255,255,255,0.6)" stroke-width="2.5"/><text x="256" y="66" text-anchor="middle" font-family="monospace" font-size="13" font-weight="normal" fill="rgba(255,255,255,0.5)">120</text></g>
<g transform="rotate(125 256 256)"><line x1="256" y1="26" x2="256" y2="34" stroke="rgba(255,255,255,0.15)" stroke-width="1"/></g>
<g transform="rotate(130 256 256)"><line x1="256" y1="26" x2="256" y2="40" stroke="rgba(255,255,255,0.3)" stroke-width="1.5"/></g>
<g transform="rotate(135 256 256)"><line x1="256" y1="26" x2="256" y2="48" stroke="rgba(255,255,255,0.6)" stroke-width="2.5"/><text x="256" y="66" text-anchor="middle" font-family="monospace" font-size="13" font-weight="normal" fill="rgba(255,255,255,0.5)">135</text></g>
<g transform="rotate(140 256 256)"><line x1="256" y1="26" x2="256" y2="40" stroke="rgba(255,255,255,0.3)" stroke-width="1.5"/></g>
<g transform="rotate(145 256 256)"><line x1="256" y1="26" x2="256" y2="34" stroke="rgba(255,255,255,0.15)" stroke-width="1"/></g>
<g transform="rotate(150 256 256)"><line x1="256" y1="26" x2="256" y2="48" stroke="rgba(255,255,255,0.6)" stroke-width="2.5"/><text x="256" y="66" text-anchor="middle" font-family="monospace" font-size="13" font-weight="normal" fill="rgba(255,255,255,0.5)">150</text></g>
<g transform="rotate(155 256 256)"><line x1="256" y1="26" x2="256" y2="34" stroke="rgba(255,255,255,0.15)" stroke-width="1"/></g>
<g transform="rotate(160 256 256)"><line x1="256" y1="26" x2="256" y2="40" stroke="rgba(255,255,255,0.3)" stroke-width="1.5"/></g>
<g transform="rotate(165 256 256)"><line x1="256" y1="26" x2="256" y2="48" stroke="rgba(255,255,255,0.6)" stroke-width="2.5"/><text x="256" y="66" text-anchor="middle" font-family="monospace" font-size="13" font-weight="normal" fill="rgba(255,255,255,0.5)">165</text></g>
<g transform="rotate(170 256 256)"><line x1="256" y1="26" x2="256" y2="40" stroke="rgba(255,255,255,0.3)" stroke-width="1.5"/></g>
<g transform="rotate(175 256 256)"><line x1="256" y1="26" x2="256" y2="34" stroke="rgba(255,255,255,0.15)" stroke-width="1"/></g>
<g transform="rotate(180 256 256)"><line x1="256" y1="26" x2="256" y2="60" stroke="#00E5FF" stroke-width="4"/><text x="256" y="78" text-anchor="middle" font-family="monospace" font-size="22" font-weight="bold" fill="#00E5FF">180</text></g>
<g transform="rotate(185 256 256)"><line x1="256" y1="26" x2="256" y2="34" stroke="rgba(255,255,255,0.15)" stroke-width="1"/></g>
<g transform="rotate(190 256 256)"><line x1="256" y1="26" x2="256" y2="40" stroke="rgba(255,255,255,0.3)" stroke-width="1.5"/></g>
<g transform="rotate(195 256 256)"><line x1="256" y1="26" x2="256" y2="48" stroke="rgba(255,255,255,0.6)" stroke-width="2.5"/><text x="256" y="66" text-anchor="middle" font-family="monospace" font-size="13" font-weight="normal" fill="rgba(255,255,255,0.5)">195</text></g>
<g transform="rotate(200 256 256)"><line x1="256" y1="26" x2="256" y2="40" stroke="rgba(255,255,255,0.3)" stroke-width="1.5"/></g>
<g transform="rotate(205 256 256)"><line x1="256" y1="26" x2="256" y2="34" stroke="rgba(255,255,255,0.15)" stroke-width="1"/></g>
<g transform="rotate(210 256 256)"><line x1="256" y1="26" x2="256" y2="48" stroke="rgba(255,255,255,0.6)" stroke-width="2.5"/><text x="256" y="66" text-anchor="middle" font-family="monospace" font-size="13" font-weight="normal" fill="rgba(255,255,255,0.5)">210</text></g>
<g transform="rotate(215 256 256)"><line x1="256" y1="26" x2="256" y2="34" stroke="rgba(255,255,255,0.15)" stroke-width="1"/></g>
<g transform="rotate(220 256 256)"><line x1="256" y1="26" x2="256" y2="40" stroke="rgba(255,255,255,0.3)" stroke-width="1.5"/></g>
<g transform="rotate(225 256 256)"><line x1="256" y1="26" x2="256" y2="48" stroke="rgba(255,255,255,0.6)" stroke-width="2.5"/><text x="256" y="66" text-anchor="middle" font-family="monospace" font-size="13" font-weight="normal" fill="rgba(255,255,255,0.5)">225</text></g>
<g transform="rotate(230 256 256)"><line x1="256" y1="26" x2="256" y2="40" stroke="rgba(255,255,255,0.3)" stroke-width="1.5"/></g>
<g transform="rotate(235 256 256)"><line x1="256" y1="26" x2="256" y2="34" stroke="rgba(255,255,255,0.15)" stroke-width="1"/></g>
<g transform="rotate(240 256 256)"><line x1="256" y1="26" x2="256" y2="48" stroke="rgba(255,255,255,0.6)" stroke-width="2.5"/><text x="256" y="66" text-anchor="middle" font-family="monospace" font-size="13" font-weight="normal" fill="rgba(255,255,255,0.5)">240</text></g>
<g transform="rotate(245 256 256)"><line x1="256" y1="26" x2="256" y2="34" stroke="rgba(255,255,255,0.15)" stroke-width="1"/></g>
<g transform="rotate(250 256 256)"><line x1="256" y1="26" x2="256" y2="40" stroke="rgba(255,255,255,0.3)" stroke-width="1.5"/></g>
<g transform="rotate(255 256 256)"><line x1="256" y1="26" x2="256" y2="48" stroke="rgba(255,255,255,0.6)" stroke-width="2.5"/><text x="256" y="66" text-anchor="middle" font-family="monospace" font-size="13" font-weight="normal" fill="rgba(255,255,255,0.5)">255</text></g>
<g transform="rotate(260 256 256)"><line x1="256" y1="26" x2="256" y2="40" stroke="rgba(255,255,255,0.3)" stroke-width="1.5"/></g>
<g transform="rotate(265 256 256)"><line x1="256" y1="26" x2="256" y2="34" stroke="rgba(255,255,255,0.15)" stroke-width="1"/></g>
<g transform="rotate(270 256 256)"><line x1="256" y1="26" x2="256" y2="60" stroke="#00E5FF" stroke-width="4"/><text x="256" y="78" text-anchor="middle" font-family="monospace" font-size="22" font-weight="bold" fill="#00E5FF">270</text></g>
<g transform="rotate(275 256 256)"><line x1="256" y1="26" x2="256" y2="34" stroke="rgba(255,255,255,0.15)" stroke-width="1"/></g>
<g transform="rotate(280 256 256)"><line x1="256" y1="26" x2="256" y2="40" stroke="rgba(255,255,255,0.3)" stroke-width="1.5"/></g>
<g transform="rotate(285 256 256)"><line x1="256" y1="26" x2="256" y2="48" stroke="rgba(255,255,255,0.6)" stroke-width="2.5"/><text x="256" y="66" text-anchor="middle" font-family="monospace" font-size="13" font-weight="normal" fill="rgba(255,255,255,0.5)">285</text></g>
<g transform="rotate(290 256 256)"><line x1="256" y1="26" x2="256" y2="40" stroke="rgba(255,255,255,0.3)" stroke-width="1.5"/></g>
<g transform="rotate(295 256 256)"><line x1="256" y1="26" x2="256" y2="34" stroke="rgba(255,255,255,0.15)" stroke-width="1"/></g>
<g transform="rotate(300 256 256)"><line x1="256" y1="26" x2="256" y2="48" stroke="rgba(255,255,255,0.6)" stroke-width="2.5"/><text x="256" y="66" text-anchor="middle" font-family="monospace" font-size="13" font-weight="normal" fill="rgba(255,255,255,0.5)">300</text></g>
<g transform="rotate(305 256 256)"><line x1="256" y1="26" x2="256" y2="34" stroke="rgba(255,255,255,0.15)" stroke-width="1"/></g>
<g transform="rotate(310 256 256)"><line x1="256" y1="26" x2="256" y2="40" stroke="rgba(255,255,255,0.3)" stroke-width="1.5"/></g>
<g transform="rotate(315 256 256)"><line x1="256" y1="26" x2="256" y2="48" stroke="rgba(255,255,255,0.6)" stroke-width="2.5"/><text x="256" y="66" text-anchor="middle" font-family="monospace" font-size="13" font-weight="normal" fill="rgba(255,255,255,0.5)">315</text></g>
<g transform="rotate(320 256 256)"><line x1="256" y1="26" x2="256" y2="40" stroke="rgba(255,255,255,0.3)" stroke-width="1.5"/></g>
<g transform="rotate(325 256 256)"><line x1="256" y1="26" x2="256" y2="34" stroke="rgba(255,255,255,0.15)" stroke-width="1"/></g>
<g transform="rotate(330 256 256)"><line x1="256" y1="26" x2="256" y2="48" stroke="rgba(255,255,255,0.6)" stroke-width="2.5"/><text x="256" y="66" text-anchor="middle" font-family="monospace" font-size="13" font-weight="normal" fill="rgba(255,255,255,0.5)">330</text></g>
<g transform="rotate(335 256 256)"><line x1="256" y1="26" x2="256" y2="34" stroke="rgba(255,255,255,0.15)" stroke-width="1"/></g>
<g transform="rotate(340 256 256)"><line x1="256" y1="26" x2="256" y2="40" stroke="rgba(255,255,255,0.3)" stroke-width="1.5"/></g>
<g transform="rotate(345 256 256)"><line x1="256" y1="26" x2="256" y2="48" stroke="rgba(255,255,255,0.6)" stroke-width="2.5"/><text x="256" y="66" text-anchor="middle" font-family="monospace" font-size="13" font-weight="normal" fill="rgba(255,255,255,0.5)">345</text></g>
<g transform="rotate(350 256 256)"><line x1="256" y1="26" x2="256" y2="40" stroke="rgba(255,255,255,0.3)" stroke-width="1.5"/></g>
<g transform="rotate(355 256 256)"><line x1="256" y1="26" x2="256" y2="34" stroke="rgba(255,255,255,0.15)" stroke-width="1"/></g>
<circle cx="256" cy="256" r="148" fill="#080D18" stroke="rgba(0,229,255,0.07)" stroke-width="1"/>
<line x1="256" y1="108" x2="256" y2="404" stroke="rgba(255,255,255,0.04)" stroke-width="1"/>
<line x1="108" y1="256" x2="404" y2="256" stroke="rgba(255,255,255,0.04)" stroke-width="1"/>
<polygon points="256,110 246,256 256,234 266,256" fill="#10B981"/>
<polygon points="256,402 246,256 256,278 266,256" fill="#EF4444"/>
<circle cx="256" cy="256" r="14" fill="#1a2535" stroke="#00E5FF" stroke-width="2"/>
<circle cx="256" cy="256" r="6" fill="#00E5FF"/>
</svg>